<svg width="25" height="24" viewBox="0 0 25 24" fill="none" xmlns="http://www.w3.org/2000/svg">
<g opacity="0.9">
<path d="M8.10254 13.115C7.89587 13.115 7.71587 13.0383 7.56254 12.885C7.40921 12.7317 7.33254 12.5517 7.33254 12.345C7.33254 12.1383 7.40921 11.9587 7.56254 11.806C7.71587 11.6533 7.89587 11.5767 8.10254 11.576C8.30921 11.5753 8.48921 11.652 8.64254 11.806C8.79587 11.96 8.87254 12.14 8.87254 12.346C8.87254 12.552 8.79587 12.7317 8.64254 12.885C8.48921 13.0383 8.30921 13.115 8.10254 13.115ZM12.1025 13.115C11.8959 13.115 11.7159 13.0383 11.5625 12.885C11.4092 12.7317 11.3325 12.5517 11.3325 12.345C11.3325 12.1383 11.4092 11.9587 11.5625 11.806C11.7159 11.6533 11.8959 11.5767 12.1025 11.576C12.3092 11.5753 12.4892 11.652 12.6425 11.806C12.7959 11.96 12.8725 12.14 12.8725 12.346C12.8725 12.552 12.7959 12.7317 12.6425 12.885C12.4892 13.0383 12.3092 13.115 12.1025 13.115ZM16.1025 13.115C15.8959 13.115 15.7159 13.0383 15.5625 12.885C15.4092 12.7317 15.3325 12.5517 15.3325 12.345C15.3325 12.1383 15.4092 11.9587 15.5625 11.806C15.7159 11.6533 15.8959 11.5767 16.1025 11.576C16.3092 11.5753 16.4892 11.652 16.6425 11.806C16.7959 11.96 16.8725 12.14 16.8725 12.346C16.8725 12.552 16.7959 12.7317 16.6425 12.885C16.4892 13.0383 16.3092 13.115 16.1025 13.115ZM5.71854 20.23C5.25787 20.23 4.87354 20.076 4.56554 19.768C4.25754 19.46 4.10321 19.0757 4.10254 18.615V5.845C4.10254 5.385 4.25687 5.001 4.56554 4.693C4.87421 4.385 5.25854 4.23067 5.71854 4.23H7.48754V2H8.56454V4.23H15.7185V2H16.7185V4.23H18.4875C18.9475 4.23 19.3319 4.38433 19.6405 4.693C19.9492 5.00167 20.1032 5.386 20.1025 5.846V18.615C20.1025 19.075 19.9485 19.4593 19.6405 19.768C19.3325 20.0767 18.9479 20.2307 18.4865 20.23H5.71854ZM5.71854 19.23H18.4875C18.6409 19.23 18.7819 19.166 18.9105 19.038C19.0392 18.91 19.1032 18.7687 19.1025 18.614V9.846H5.10254V18.615C5.10254 18.7683 5.16654 18.9093 5.29454 19.038C5.42254 19.1667 5.56354 19.2307 5.71754 19.23" fill="#979797"/>
</g>
</svg>
