<svg width="34" height="35" viewBox="0 0 34 35" fill="none" xmlns="http://www.w3.org/2000/svg">
<rect opacity="0.1" x="1" y="1" width="32" height="32.0802" rx="13" stroke="white" stroke-width="2"/>
<path d="M17.408 24.9555C17.264 24.9555 17.1436 24.9074 17.0467 24.8112C16.9499 24.715 16.9018 24.595 16.9024 24.451C16.9031 24.3071 16.9512 24.187 17.0467 24.0908C17.1422 23.9946 17.2623 23.9465 17.4069 23.9465H23.5782C23.7464 23.9465 23.8917 23.8947 24.0141 23.7911C24.1372 23.6875 24.1988 23.5516 24.1988 23.3835V16.4332C24.1988 14.543 23.5039 12.9645 22.1141 11.6978C20.7236 10.4305 19.0641 9.7968 17.1355 9.7968C15.2069 9.7968 13.5474 10.4305 12.1569 11.6978C10.7672 12.9645 10.0723 14.543 10.0723 16.4332V21.657C10.0723 21.8003 10.0242 21.92 9.92798 22.0162C9.83178 22.1124 9.71171 22.1608 9.56775 22.1615C9.15539 22.1615 8.79988 22.0219 8.5012 21.7428C8.2032 21.4643 8.0542 21.1192 8.0542 20.7075V18.8055C8.0542 18.5041 8.15208 18.2367 8.34783 18.0033C8.54425 17.7692 8.78272 17.5792 9.06323 17.4332L9.08039 16.1931C9.09855 15.1403 9.32726 14.1649 9.76653 13.2669C10.2058 12.3688 10.7924 11.5875 11.5263 10.9229C12.2602 10.2583 13.1091 9.7403 14.0731 9.36897C15.0371 8.99765 16.0579 8.81165 17.1355 8.81098C18.2132 8.8103 19.2333 8.99597 20.1959 9.36796C21.1585 9.73996 22.0038 10.2573 22.7316 10.9199C23.4595 11.5825 24.043 12.3628 24.4823 13.2608C24.9216 14.1589 25.1577 15.1343 25.1906 16.187L25.2078 17.4009C25.4755 17.5267 25.7106 17.6959 25.9131 17.9084C26.1156 18.1203 26.2168 18.3749 26.2168 18.6723V20.8578C26.2168 21.1552 26.1156 21.4098 25.9131 21.6217C25.7106 21.8336 25.4755 22.0024 25.2078 22.1282V23.3835C25.2078 23.8221 25.049 24.1937 24.7315 24.4984C24.414 24.8032 24.0296 24.9555 23.5782 24.9555H17.408ZM14.4969 18.4352C14.2884 18.4352 14.1067 18.3645 13.952 18.2233C13.7973 18.082 13.7199 17.9071 13.7199 17.6986C13.7199 17.49 13.7973 17.3118 13.952 17.1638C14.1067 17.0158 14.2884 16.9418 14.4969 16.9418C14.7054 16.9418 14.8867 17.0158 15.0408 17.1638C15.1948 17.3118 15.2722 17.49 15.2728 17.6986C15.2735 17.9071 15.1961 18.082 15.0408 18.2233C14.8854 18.3645 14.7037 18.4352 14.4959 18.4352M19.7751 18.4352C19.5666 18.4352 19.385 18.3645 19.2303 18.2233C19.0756 18.082 18.9982 17.9071 18.9982 17.6986C18.9982 17.49 19.0756 17.3118 19.2303 17.1638C19.385 17.0158 19.5666 16.9418 19.7751 16.9418C19.9837 16.9418 20.165 17.0158 20.319 17.1638C20.4731 17.3118 20.5504 17.49 20.5511 17.6986C20.5518 17.9071 20.4744 18.082 20.319 18.2233C20.1636 18.3645 19.982 18.4352 19.7741 18.4352M11.8058 16.8328C11.7143 15.3219 12.201 14.0341 13.2659 12.9692C14.3301 11.9043 15.6371 11.3719 17.187 11.3719C18.4893 11.3719 19.6436 11.7631 20.65 12.5454C21.6563 13.3278 22.2705 14.3553 22.4925 15.628C21.1558 15.6112 19.9154 15.2701 18.7712 14.6049C17.6269 13.9396 16.7491 13.0146 16.1376 11.83C15.8941 12.9944 15.3879 14.0149 14.619 14.8914C13.8494 15.7679 12.9117 16.4151 11.8058 16.8328Z" fill="white"/>
</svg>
