<svg width="28" height="25" viewBox="0 0 28 25" fill="none" xmlns="http://www.w3.org/2000/svg">
<g clip-path="url(#clip0_3_1518)">
<path d="M26.4429 21.875C26.5905 21.875 26.732 21.8201 26.8364 21.7225C26.9407 21.6248 26.9993 21.4923 26.9993 21.3542V11.9792C26.9854 11.6383 26.9007 11.3032 26.7501 10.9927L25.5793 8.79896C25.4973 8.66448 25.3805 8.55141 25.2399 8.47006C25.0991 8.38872 24.9387 8.34171 24.7736 8.33333H19.2091V6.25L17.7891 3.59063C17.707 3.45615 17.5903 3.34307 17.4496 3.26173C17.3088 3.18039 17.1485 3.13337 16.9833 3.125H11.4189C11.2537 3.13337 11.0934 3.18039 10.9526 3.26173C10.8119 3.34307 10.6951 3.45615 10.6131 3.59063L9.19307 6.25V8.33333H3.62862C3.46343 8.34171 3.30313 8.38872 3.16237 8.47006C3.02161 8.55141 2.90489 8.66448 2.82288 8.79896L1.65101 10.9917C1.50052 11.3026 1.41623 11.638 1.40283 11.9792V21.3542C1.40283 21.4923 1.46146 21.6248 1.56581 21.7225C1.67017 21.8201 1.8117 21.875 1.95928 21.875H26.4429Z" fill="#FFBC44"/>
<path d="M26.9224 11.4583C26.8834 11.2975 26.826 11.141 26.7511 10.9916L25.5792 8.79894C25.4972 8.66446 25.3804 8.55139 25.2397 8.47004C25.099 8.3887 24.9386 8.34169 24.7734 8.33331H19.209V11.4583H26.9224Z" fill="#FFE4B4"/>
<path d="M17.7888 3.59063C17.7068 3.45615 17.5901 3.34307 17.4494 3.26173C17.3086 3.18039 17.1483 3.13337 16.9831 3.125H11.4187C11.2535 3.13337 11.0932 3.18039 10.9524 3.26173C10.8116 3.34307 10.6949 3.45615 10.6129 3.59063L9.19287 6.25H19.2089L17.7888 3.59063Z" fill="#FFE4B4"/>
<path d="M9.19307 8.33331H3.62862C3.46343 8.34169 3.30313 8.3887 3.16237 8.47004C3.02161 8.55139 2.90489 8.66446 2.82288 8.79894L1.65101 10.9916C1.50052 11.3026 1.41623 11.638 1.40283 11.9791H9.19307V8.33331Z" fill="#FFE4B4"/>
<path d="M19.2089 6.25H9.19287V21.875H19.2089V6.25Z" stroke="#191919" stroke-linecap="round" stroke-linejoin="round"/>
<path d="M19.209 11.4583V8.33331H24.7734C24.9386 8.34169 25.099 8.3887 25.2397 8.47004C25.3804 8.55139 25.4972 8.66446 25.5792 8.79894L26.7511 10.9916C26.9017 11.3022 26.9864 11.6373 27.0003 11.9781V21.3531C27.0003 21.4912 26.9417 21.6237 26.8374 21.7214C26.733 21.819 26.5915 21.8739 26.4439 21.8739H19.209V11.4583Z" stroke="#191919" stroke-linecap="round" stroke-linejoin="round"/>
<path d="M9.19307 11.4583V8.33331H3.62862C3.46343 8.34169 3.30313 8.3887 3.16237 8.47004C3.02161 8.55139 2.90489 8.66446 2.82288 8.79894L1.65101 10.9916C1.50052 11.3026 1.41623 11.638 1.40283 11.9791V21.3541C1.40283 21.4923 1.46146 21.6248 1.56581 21.7225C1.67017 21.8201 1.8117 21.875 1.95928 21.875H9.19307V11.4583Z" stroke="#191919" stroke-linecap="round" stroke-linejoin="round"/>
<path d="M9.19287 6.25L10.6129 3.59063C10.6949 3.45615 10.8116 3.34307 10.9524 3.26173C11.0932 3.18039 11.2535 3.13337 11.4187 3.125H16.9831C17.1483 3.13337 17.3086 3.18039 17.4494 3.26173C17.5901 3.34307 17.7068 3.45615 17.7888 3.59063L19.2089 6.25H9.19287Z" stroke="#191919" stroke-linecap="round" stroke-linejoin="round"/>
<path d="M19.209 11.4583H26.9992" stroke="#191919" stroke-linecap="round" stroke-linejoin="round"/>
<path d="M22.0269 15.3552C22.0806 15.1675 22.1894 14.9976 22.3409 14.8648C22.4925 14.732 22.6807 14.6414 22.8842 14.6034C23.0879 14.5654 23.2988 14.5815 23.4931 14.6499C23.6874 14.7181 23.8575 14.836 23.984 14.9901C24.1105 15.1441 24.1885 15.3282 24.2091 15.5215C24.2298 15.715 24.1922 15.9099 24.1006 16.0842C24.0091 16.2586 23.8672 16.4056 23.6912 16.5085C23.5151 16.6114 23.3117 16.6662 23.1041 16.6666C23.3114 16.6669 23.5143 16.7211 23.6903 16.8234C23.8664 16.9257 24.0084 17.072 24.1003 17.2457C24.1923 17.4195 24.2307 17.6138 24.2111 17.8069C24.1914 17.9999 24.1146 18.184 23.9893 18.3384C23.864 18.4928 23.6952 18.6114 23.5018 18.6809C23.3082 18.7503 23.098 18.7679 22.8945 18.7315C22.6909 18.6951 22.5024 18.6063 22.3498 18.4751C22.1974 18.3438 22.0871 18.1753 22.0313 17.9885" stroke="#191919" stroke-linecap="round" stroke-linejoin="round"/>
<path d="M4.18506 15.625C4.18506 15.3487 4.30231 15.0837 4.51101 14.8884C4.71973 14.6931 5.00279 14.5833 5.29795 14.5833C5.59311 14.5833 5.87618 14.6931 6.08489 14.8884C6.29359 15.0837 6.41084 15.3487 6.41084 15.625C6.41105 15.962 6.28858 16.2889 6.06362 16.5521L4.18506 18.75H6.41084" stroke="#191919" stroke-linecap="round" stroke-linejoin="round"/>
<path d="M13.6445 11.4583H14.201C14.3485 11.4583 14.4901 11.5132 14.5945 11.6108C14.6988 11.7085 14.7574 11.841 14.7574 11.9791V15.625" stroke="#191919" stroke-linecap="round" stroke-linejoin="round"/>
<path d="M13.6421 15.625H15.8679" stroke="#191919" stroke-linecap="round" stroke-linejoin="round"/>
<path d="M1.40283 11.9792H9.19307" stroke="#191919" stroke-linecap="round" stroke-linejoin="round"/>
</g>
<defs>
<clipPath id="clip0_3_1518">
<rect width="26.7094" height="25" fill="white" transform="translate(0.846191)"/>
</clipPath>
</defs>
</svg>
