<svg width="34" height="35" viewBox="0 0 34 35" fill="none" xmlns="http://www.w3.org/2000/svg">
<g clip-path="url(#clip0_3_1415)">
<path d="M17.2211 14.795C16.7595 14.7493 16.2951 14.8478 15.8914 15.077C15.4877 15.3062 15.1646 15.6549 14.9662 16.0753C14.7678 16.4957 14.7038 16.9674 14.7831 17.4257C14.8624 17.884 15.081 18.3065 15.409 18.6354C15.737 18.9643 16.1584 19.1835 16.6155 19.263C17.0726 19.3425 17.543 19.2784 17.9623 19.0794C18.3816 18.8805 18.7294 18.5565 18.9579 18.1517C19.1865 17.747 19.2847 17.2813 19.2391 16.8184C19.1871 16.2995 18.9578 15.8146 18.5901 15.4458C18.2223 15.0771 17.7387 14.8472 17.2211 14.795V14.795ZM22.6387 17.0401C22.6373 17.2854 22.6193 17.5302 22.5849 17.773L24.1744 19.023C24.2436 19.0805 24.2902 19.1607 24.306 19.2495C24.3217 19.3382 24.3056 19.4297 24.2605 19.5077L22.7569 22.1162C22.7112 22.1934 22.6398 22.2519 22.5553 22.2815C22.4708 22.3111 22.3786 22.3099 22.2949 22.278L20.7164 21.6406C20.6293 21.6059 20.535 21.5933 20.442 21.6041C20.3489 21.6149 20.2599 21.6486 20.1831 21.7023C19.9422 21.8687 19.689 22.0164 19.4258 22.1444C19.343 22.1847 19.2715 22.2448 19.2174 22.3195C19.1633 22.3941 19.1284 22.4809 19.1157 22.5723L18.8791 24.2604C18.8636 24.3496 18.8176 24.4306 18.7492 24.4895C18.6807 24.5485 18.5939 24.5818 18.5036 24.5837H15.4964C15.4076 24.5821 15.322 24.5503 15.2537 24.4935C15.1854 24.4367 15.1384 24.3582 15.1206 24.271L14.8843 22.5854C14.871 22.493 14.8352 22.4053 14.78 22.3302C14.7248 22.255 14.652 22.1947 14.5679 22.1546C14.305 22.0274 14.0527 21.8792 13.8135 21.7115C13.7368 21.6581 13.6482 21.6246 13.5554 21.614C13.4627 21.6035 13.3688 21.6163 13.2822 21.6512L11.7041 22.2882C11.6204 22.3201 11.5283 22.3214 11.4437 22.2919C11.3592 22.2624 11.2878 22.2039 11.2421 22.1267L9.73849 19.5182C9.69328 19.4403 9.67713 19.3488 9.6929 19.26C9.70867 19.1713 9.75535 19.091 9.82462 19.0335L11.1679 17.976C11.2415 17.9175 11.2994 17.8414 11.3362 17.7547C11.373 17.668 11.3877 17.5735 11.3789 17.4797C11.3662 17.3327 11.3585 17.1861 11.3585 17.0391C11.3585 16.8921 11.3659 16.7476 11.3789 16.6037C11.3867 16.5105 11.3714 16.4168 11.3341 16.331C11.2969 16.2452 11.2389 16.1701 11.1655 16.1123L9.82286 15.0548C9.75472 14.9971 9.70902 14.9171 9.69379 14.8289C9.67855 14.7407 9.69475 14.65 9.73954 14.5726L11.2432 11.9641C11.2888 11.8869 11.3602 11.8283 11.4447 11.7987C11.5292 11.7691 11.6215 11.7704 11.7051 11.8023L13.2836 12.4396C13.3707 12.4744 13.465 12.4869 13.5581 12.4762C13.6511 12.4654 13.7401 12.4316 13.817 12.3779C14.0579 12.2116 14.311 12.0638 14.5742 11.9359C14.657 11.8956 14.7286 11.8354 14.7826 11.7608C14.8367 11.6862 14.8716 11.5993 14.8843 11.508L15.1209 9.81983C15.1365 9.73067 15.1824 9.6497 15.2509 9.59074C15.3194 9.53178 15.4061 9.4985 15.4964 9.49658H18.5036C18.5924 9.49812 18.678 9.52993 18.7463 9.58676C18.8146 9.6436 18.8616 9.72207 18.8795 9.80925L19.1157 11.4949C19.129 11.5873 19.1648 11.675 19.22 11.7501C19.2752 11.8253 19.3481 11.8856 19.4321 11.9257C19.695 12.0529 19.9473 12.2011 20.1866 12.3688C20.2632 12.4222 20.3519 12.4557 20.4446 12.4662C20.5373 12.4768 20.6312 12.464 20.7178 12.4291L22.296 11.7921C22.3796 11.7601 22.4718 11.7588 22.5563 11.7884C22.6408 11.8179 22.7122 11.8764 22.7579 11.9535L24.2615 14.562C24.3067 14.64 24.3229 14.7315 24.3071 14.8202C24.2914 14.909 24.2447 14.9893 24.1754 15.0467L22.8321 16.1042C22.7582 16.1626 22.7 16.2386 22.6628 16.3253C22.6257 16.412 22.6108 16.5066 22.6194 16.6006C22.631 16.7465 22.6387 16.8931 22.6387 17.0401Z" stroke="white" stroke-width="1.5" stroke-linecap="round" stroke-linejoin="round"/>
</g>
<rect opacity="0.1" x="1" y="1" width="32" height="32.0802" rx="13" stroke="white" stroke-width="2"/>
<defs>
<clipPath id="clip0_3_1415">
<rect width="18" height="18.0481" fill="white" transform="translate(8 8.01605)"/>
</clipPath>
</defs>
</svg>
